<svg width="37" height="41" viewBox="0 0 37 41" fill="none" xmlns="http://www.w3.org/2000/svg">
<path d="M33.4318 5.62822L33.433 5.62868C34.1705 5.9256 34.8481 6.52565 35.3422 7.26061C35.8363 7.99563 36.1345 8.84728 36.1345 9.63259V18.587C36.1345 28.4616 28.9612 37.7217 19.1581 40.4306C18.5217 40.6041 17.8262 40.6041 17.1898 40.4306C7.38666 37.7217 0.213354 28.4616 0.213354 18.587V9.63259C0.213354 8.84724 0.511626 7.99545 1.00343 7.2602C1.49524 6.52494 2.16803 5.92501 2.8954 5.62832L2.89564 5.62822L14.2567 0.977739C16.7547 -0.0414409 19.5728 -0.0414409 22.0708 0.977739L33.4318 5.62822Z" fill="url(#paint0_linear_1200_873)" stroke="white" stroke-width="0.426708"/>
<path d="M21.7343 19.8519V19.2227C21.7343 18.421 21.7343 15.9902 18.3907 15.9902C15.0471 15.9902 15.0471 18.421 15.0471 19.2227V19.8519C13.9593 20.0847 13.5938 20.7656 13.5938 22.2396V23.1016C13.5938 24.998 14.2001 25.5841 16.1616 25.5841H20.6198C22.5813 25.5841 23.1877 24.998 23.1877 23.1016V22.2396C23.1877 20.7656 22.8221 20.0847 21.7343 19.8519ZM18.3907 23.6188C17.8468 23.6188 17.4099 23.1964 17.4099 22.6706C17.4099 22.1448 17.8468 21.7224 18.3907 21.7224C18.9346 21.7224 19.3715 22.1448 19.3715 22.6706C19.3715 23.1964 18.9346 23.6188 18.3907 23.6188ZM20.3969 19.7571H16.3845V19.2227C16.3845 17.9642 16.7055 17.2832 18.3907 17.2832C20.0759 17.2832 20.3969 17.9642 20.3969 19.2227V19.7571Z" fill="white"/>
<defs>
<linearGradient id="paint0_linear_1200_873" x1="18.1739" y1="0" x2="18.1739" y2="40.7741" gradientUnits="userSpaceOnUse">
<stop stop-color="#E51D24"/>
<stop offset="1" stop-color="#BB0C12"/>
</linearGradient>
</defs>
</svg>
