<svg width="600" height="494" viewBox="0 0 600 494" fill="none" xmlns="http://www.w3.org/2000/svg">
<path d="M588.93 274.737L588.931 274.742C608.372 338.663 590.68 404.178 542.822 446.164L542.797 446.186L542.773 446.208C512.188 474.146 472.19 489.735 430.423 489.735H119.2C39.1687 483.835 3.30608 422.359 3.30608 367.363C3.30608 364.35 3.30799 361.494 3.59245 358.364L3.59568 358.329L3.59815 358.293C6.81912 311.736 35.75 263.085 94.0701 248.796L97.3061 248.003L96.4883 244.774C79.0341 175.844 93.8584 111.368 138.565 64.6024L138.566 64.6022C189.595 11.2128 271.077 -10.0363 341.257 11.7845L341.264 11.7867L341.272 11.7889C405.653 31.4854 451.107 84.4094 467.387 158.411L467.837 160.455L469.877 160.923C501.914 168.271 530.393 185.015 551.818 209.375L551.851 209.413L551.885 209.449C568.62 227.359 581.271 249.404 588.93 274.737Z" fill="url(#paint0_linear_1026_1035)" stroke="white" stroke-width="6.61217"/>
<path d="M349.152 270.453V260.702C349.152 248.28 349.152 210.613 297.34 210.613C245.529 210.613 245.529 248.28 245.529 260.702V270.453C228.673 274.06 223.008 284.612 223.008 307.452V320.81C223.008 350.195 232.403 359.278 262.799 359.278H331.881C362.277 359.278 371.673 350.195 371.673 320.81V307.452C371.673 284.612 366.008 274.06 349.152 270.453ZM297.34 328.824C288.912 328.824 282.142 322.279 282.142 314.131C282.142 305.983 288.912 299.438 297.34 299.438C305.768 299.438 312.538 305.983 312.538 314.131C312.538 322.279 305.768 328.824 297.34 328.824ZM328.427 268.984H266.253V260.702C266.253 241.201 271.227 230.649 297.34 230.649C323.453 230.649 328.427 241.201 328.427 260.702V268.984Z" fill="white"/>
<defs>
<linearGradient id="paint0_linear_1026_1035" x1="300" y1="0" x2="300" y2="493.041" gradientUnits="userSpaceOnUse">
<stop stop-color="#E51D24"/>
<stop offset="1" stop-color="#BB0C12"/>
</linearGradient>
</defs>
</svg>
