<svg xmlns="http://www.w3.org/2000/svg" viewBox="0 0 254.26 47.31"><defs><style>.cls-1{fill-rule:evenodd;}.cls-2{fill:#ec1d24;}</style></defs><title>Conclave.Master_b&amp;amp;r</title><g id="Layer_2" data-name="Layer 2"><g id="Layer_1-2" data-name="Layer 1"><path d="M69.28,46.2V13.71h9.56l.28,3.54a11.23,11.23,0,0,1,4.22-3.12A13.07,13.07,0,0,1,88.75,13a12,12,0,0,1,8.86,3.33q3.33,3.31,3.33,9.83V46.2H91V27.5a6.46,6.46,0,0,0-1.35-4.3,4.68,4.68,0,0,0-3.77-1.59,6,6,0,0,0-5,2.15,7.8,7.8,0,0,0-1.69,5V46.2Z"/><path d="M137.79,46.2V0h10V46.2Z"/><path d="M198.07,46.2,184.36,13.71h11.08l7.69,21.34,7.41-21.34h10.88L207.49,46.2Z"/><path d="M249.48,36.36l4.09,6.31q-.69.48-2.46,1.59a22.12,22.12,0,0,1-4.67,2.08,23,23,0,0,1-7.14,1,19.49,19.49,0,0,1-9.56-2.22,15.25,15.25,0,0,1-6.16-6.17,18.68,18.68,0,0,1-2.15-9.07,18.73,18.73,0,0,1,2-8.52A15.58,15.58,0,0,1,229.16,15a16.44,16.44,0,0,1,9-2.39A15.44,15.44,0,0,1,247,15a14.93,14.93,0,0,1,5.41,6.57,24,24,0,0,1,1.83,9.67V32.9H231.13a6.19,6.19,0,0,0,2.35,4.57,9,9,0,0,0,6.17,2,14.91,14.91,0,0,0,6.3-1.14A21.55,21.55,0,0,0,249.48,36.36Zm-18.35-9.83h13.71a6.18,6.18,0,0,0-.72-2.81,6.39,6.39,0,0,0-2.22-2.39,6.84,6.84,0,0,0-3.78-1,7.2,7.2,0,0,0-3.84,1,6.7,6.7,0,0,0-2.35,2.39A5.62,5.62,0,0,0,231.13,26.53Z"/><path class="cls-1" d="M27.24,16A17.31,17.31,0,0,0,21,24.58a6.54,6.54,0,0,0-3.88-1.28,6.67,6.67,0,0,0,0,13.34A6.47,6.47,0,0,0,21,35.36,17.34,17.34,0,0,0,27.24,44a17,17,0,0,1-10.09,3.32,17.34,17.34,0,0,1,0-34.67A17,17,0,0,1,27.24,16Z"/><path class="cls-2" d="M46.2,12.64A17.34,17.34,0,1,0,63.53,30,17.33,17.33,0,0,0,46.2,12.64Zm3.63,25.58H42.57l1.2-7.4a4.53,4.53,0,0,1,2.95-8.32,4.53,4.53,0,0,1,1.92,8.32Z"/><path d="M179.56,16.59q-3.54-4-10.95-4A25.89,25.89,0,0,0,159.4,14a21.34,21.34,0,0,0-5.47,2.94L158,23a17.84,17.84,0,0,1,3.74-1.87,15.74,15.74,0,0,1,5.47-.83,8.64,8.64,0,0,1,4.33,1.08,3.75,3.75,0,0,1,1.9,3.56v.7a13.77,13.77,0,0,0-2.32-.21c-1.18-.05-2.34-.07-3.5-.07A20.52,20.52,0,0,0,160,26.7a12.12,12.12,0,0,0-5.36,4,10.43,10.43,0,0,0-2,6.44,8.94,8.94,0,0,0,6.13,9.18,14.82,14.82,0,0,0,4.82.87q6.36,0,9.83-4l.28,3.05h9.35V27.29Q183.09,20.57,179.56,16.59Zm-7,17.9a3.93,3.93,0,0,1-1.6,3.41,6.19,6.19,0,0,1-3.77,1.27c-3.47,0-3.91-1.65-3.91-3.08a2.87,2.87,0,0,1,1.32-2.56c.68-.46,2.16-1,5.36-1a19.09,19.09,0,0,1,2.12.1l.48.05Z"/><path class="cls-1" d="M133.25,16A17.31,17.31,0,0,0,127,24.58a6.54,6.54,0,0,0-3.88-1.28,6.67,6.67,0,0,0,0,13.34A6.47,6.47,0,0,0,127,35.36,17.34,17.34,0,0,0,133.25,44a17,17,0,0,1-10.09,3.32,17.34,17.34,0,0,1,0-34.67A16.93,16.93,0,0,1,133.25,16Z"/></g></g></svg>